# xmcd
#
# Track frame offsets: 
#        150
#        674
#        19938
#        36698
#        53153
#        65510
#        79573
#        92189
#        105886
#        124760
#        141194
#        158755
#        171983
#        187335
#        208115
#        223896
#        243332
#        259349
#        270706
#        287645
#        305473
#        321869
#
# Disc length: 4438 seconds
#
# Revision: 0
# Processed by: cddbd v1.5.2PL0 Copyright (c) Steve Scherf et al.
# Submitted via: ExactAudioCopy v0.99pb4
#
DISCID=4b115416
DTITLE=Various Artist - prevue promo 1078A-3
DYEAR=2001
DGENRE=pop
TTITLE0=blank - data
TTITLE1=Yolanda Adams - Never Give Up
TTITLE2=LFO (Lyte Funkie Ones) - Life Is Good
TTITLE3=Cake - Love You Madly
TTITLE4=Myra - Miracles Happen
TTITLE5=Aaron Carter feat. Nick Carter - Not Too Young, Not Too Old
TTITLE6=Wiseguys, The - Ooh La La(L. W. Edit)
TTITLE7=Lil' J feat. Kandi - It's The Weekend
TTITLE8=Missy "Misdemeanor" Elliott feat Ginuwine and Introducing Tweet 
TTITLE8=/ Take Away
TTITLE9=T.C.P. (The Crash Poets) - Gotta Girl (Uh-Huh)
TTITLE10=Bubba Sparxx - Ugly
TTITLE11=Will Hoge - Your Fool
TTITLE12=Matthew Harrison - My Best Friend
TTITLE13=Creed - My Sacrifice(New Radio Edit - No Outro - Lead Vocals:
TTITLE13=Scott Stapp)
TTITLE14=Butthole Surfers - Dracula From Houston (The Bike Song)
TTITLE15=Kottonmouth Kings - On The Run
TTITLE16=Crystal Method, The - You Know It's Hard
TTITLE17=Bouncing Souls - True Believers
TTITLE18=Kid Rock - Forever
TTITLE19=Lifer - Not Like You
TTITLE20=Clutch - Immortal
TTITLE21=Drowning Pool - Sinner( Movie: "The One")
EXTD=
EXTT0=
EXTT1=
EXTT2=
EXTT3=
EXTT4=
EXTT5=
EXTT6=
EXTT7=
EXTT8=
EXTT9=
EXTT10=
EXTT11=
EXTT12=
EXTT13=
EXTT14=
EXTT15=
EXTT16=
EXTT17=
EXTT18=
EXTT19=
EXTT20=
EXTT21=
PLAYORDER=
